<svg width="16" height="17" viewBox="0 0 16 17" fill="none" xmlns="http://www.w3.org/2000/svg">
<path d="M14.1887 6.16583L10.2215 5.58926L8.4481 1.99395C8.39966 1.89551 8.31998 1.81583 8.22154 1.76739C7.97466 1.64551 7.67466 1.74708 7.55123 1.99395L5.77779 5.58926L1.8106 6.16583C1.70123 6.18145 1.60123 6.23301 1.52466 6.31114C1.4321 6.40627 1.3811 6.53426 1.38286 6.66699C1.38461 6.79971 1.43899 6.9263 1.53404 7.01895L4.40435 9.81739L3.72623 13.769C3.71032 13.8609 3.7205 13.9554 3.75559 14.0418C3.79068 14.1283 3.84929 14.2032 3.92477 14.258C4.00025 14.3128 4.08958 14.3454 4.18263 14.352C4.27568 14.3586 4.36873 14.3391 4.45123 14.2955L7.99966 12.4299L11.5481 14.2955C11.645 14.3471 11.7575 14.3643 11.8653 14.3455C12.1372 14.2986 12.32 14.0408 12.2731 13.769L11.595 9.81739L14.4653 7.01895C14.5434 6.94239 14.595 6.84239 14.6106 6.73301C14.6528 6.45958 14.4622 6.20645 14.1887 6.16583Z" fill="#FEA250"/>
</svg>
